<svg width="31" height="31" viewBox="0 0 31 31" fill="none" xmlns="http://www.w3.org/2000/svg">
<path d="M27.6924 5.92976H28.6502C28.9843 5.92976 29.2553 5.65881 29.2553 5.32469C29.2553 4.99057 28.9843 4.71962 28.6502 4.71962H26.3509C26.0168 4.71962 25.7459 4.99057 25.7459 5.32469V7.62396C25.7459 7.95808 26.0168 8.22904 26.3509 8.22904C26.6851 8.22904 26.956 7.95808 26.956 7.62396V6.9582C28.7919 9.41607 29.7899 12.3983 29.7899 15.5C29.7899 23.3795 23.3795 29.7899 15.5 29.7899C7.62051 29.7899 1.21014 23.3795 1.21014 15.5C1.21014 7.62051 7.62051 1.21014 15.5 1.21014C16.0827 1.21014 16.6692 1.24554 17.2433 1.3153C17.5746 1.35536 17.8767 1.11944 17.917 0.787682C17.9574 0.455982 17.7212 0.154293 17.3894 0.113995C16.767 0.0383615 16.1314 0 15.5 0C11.3598 0 7.46737 1.61227 4.53985 4.53985C1.61227 7.46737 0 11.3598 0 15.5C0 19.6402 1.61227 23.5326 4.53985 26.4601C7.46737 29.3877 11.3598 31 15.5 31C19.6402 31 23.5326 29.3877 26.4601 26.4601C29.3877 23.5326 31 19.6402 31 15.5C31 12.0063 29.8328 8.65222 27.6924 5.92976Z" fill="#B89869"/>
<path d="M6.56341 9.13751C6.28103 8.95877 5.90727 9.04287 5.72847 9.32508C4.34716 11.5067 3.73567 14.1304 4.00668 16.7129C4.28169 19.3337 5.46127 21.8052 7.32816 23.6722C9.58115 25.9252 12.5406 27.0517 15.5001 27.0517C18.4597 27.0517 21.4191 25.9252 23.6721 23.6722C28.1781 19.1661 28.1781 11.8342 23.6721 7.32828C21.8081 5.4643 19.3407 4.28513 16.7242 4.00801C14.1465 3.73482 11.5256 4.34153 9.34487 5.71607C9.06212 5.89426 8.97747 6.26789 9.1556 6.55058C9.33379 6.83333 9.70742 6.91798 9.99011 6.73985C14.1009 4.14893 19.3751 4.74269 22.8164 8.18397C26.8506 12.2182 26.8506 18.7822 22.8164 22.8164C18.7822 26.8507 12.218 26.8507 8.18391 22.8164C4.79019 19.4227 4.18754 14.021 6.75098 9.9725C6.92966 9.69012 6.84574 9.3163 6.56341 9.13751Z" fill="#B89869"/>
<path d="M23.3661 16.1147H24.1122C24.4464 16.1147 24.7173 15.8437 24.7173 15.5096C24.7173 15.1755 24.4464 14.9045 24.1122 14.9045H23.3661C23.0319 14.9045 22.761 15.1755 22.761 15.5096C22.761 15.8437 23.0319 16.1147 23.3661 16.1147Z" fill="#B89869"/>
<path d="M6.28271 15.4901C6.28271 15.8242 6.55367 16.0952 6.88779 16.0952H7.63396C7.96808 16.0952 8.23903 15.8242 8.23903 15.4901C8.23903 15.156 7.96808 14.885 7.63396 14.885H6.88779C6.55367 14.885 6.28271 15.1559 6.28271 15.4901Z" fill="#B89869"/>
<path d="M16.1148 7.63408V6.88791C16.1148 6.55379 15.8439 6.28284 15.5097 6.28284C15.1756 6.28284 14.9047 6.55379 14.9047 6.88791V7.63408C14.9047 7.9682 15.1756 8.23916 15.5097 8.23916C15.8439 8.23916 16.1148 7.9682 16.1148 7.63408Z" fill="#B89869"/>
<path d="M14.8851 23.3659V24.1121C14.8851 24.4462 15.1561 24.7172 15.4902 24.7172C15.8243 24.7172 16.0953 24.4462 16.0953 24.1121V23.3659C16.0953 23.0318 15.8243 22.7609 15.4902 22.7609C15.1561 22.7609 14.8851 23.0318 14.8851 23.3659Z" fill="#B89869"/>
<path d="M12.4672 11.6113C12.2308 11.3751 11.8478 11.3751 11.6114 11.6113C11.3751 11.8476 11.3751 12.2308 11.6114 12.4671L13.6621 14.5177C13.5049 14.8106 13.4156 15.145 13.4156 15.5C13.4156 16.6494 14.3506 17.5844 15.5 17.5844C16.6494 17.5844 17.5845 16.6494 17.5845 15.5C17.5845 15.145 17.4951 14.8106 17.338 14.5177L21.4757 10.3801C21.7119 10.1438 21.7119 9.76067 21.4757 9.52433C21.2393 9.28811 20.8563 9.28811 20.6199 9.52433L16.4822 13.662C16.1894 13.5049 15.855 13.4155 15.5 13.4155C15.1451 13.4155 14.8107 13.5049 14.5178 13.662L12.4672 11.6113ZM16.3744 15.5C16.3744 15.9821 15.9821 16.3743 15.5 16.3743C15.0179 16.3743 14.6257 15.9821 14.6257 15.5C14.6257 15.0178 15.0179 14.6256 15.5 14.6256C15.9821 14.6256 16.3744 15.0178 16.3744 15.5Z" fill="#B89869"/>
<path d="M8.18337 8.18362C8.29652 8.07107 8.3612 7.91496 8.3612 7.75583C8.3612 7.59669 8.29652 7.44119 8.18337 7.32804C8.07083 7.21556 7.91526 7.15076 7.75558 7.15076C7.59645 7.15076 7.44034 7.2155 7.3278 7.32804C7.21532 7.44059 7.15051 7.59669 7.15051 7.75583C7.15051 7.91557 7.21526 8.07107 7.3278 8.18362C7.44034 8.2961 7.59645 8.3609 7.75558 8.3609C7.91526 8.3609 8.07083 8.2961 8.18337 8.18362Z" fill="#B89869"/>
<path d="M19.6914 1.80756C19.8512 1.80756 20.0073 1.74336 20.1198 1.63027C20.2323 1.51773 20.2971 1.36216 20.2971 1.20248C20.2971 1.04335 20.2324 0.887241 20.1198 0.774698C20.0073 0.662215 19.8512 0.597412 19.6914 0.597412C19.5322 0.597412 19.3761 0.662155 19.2637 0.774698C19.1511 0.887241 19.0863 1.04335 19.0863 1.20248C19.0863 1.36222 19.151 1.51773 19.2637 1.63027C19.3761 1.74336 19.5322 1.80756 19.6914 1.80756Z" fill="#B89869"/>
</svg>
