<svg width="36" height="31" viewBox="0 0 36 31" fill="none" xmlns="http://www.w3.org/2000/svg">
<g clip-path="url(#clip0)">
<path d="M27.4935 15.2248H30.0046C30.5723 15.2248 31.0342 14.827 31.0342 14.3382V12.1758C31.0342 11.6869 30.5723 11.2892 30.0046 11.2892H27.4935C26.9258 11.2892 26.4639 11.6869 26.4639 12.1758V14.3382C26.4639 14.827 26.9258 15.2248 27.4935 15.2248ZM27.5186 12.1974H29.9795V14.3166H27.5186V12.1974ZM27.4935 20.9767H30.0046C30.5723 20.9767 31.0342 20.579 31.0342 20.0901V17.9277C31.0342 17.4389 30.5723 17.0412 30.0046 17.0412H27.4935C26.9258 17.0412 26.4639 17.4389 26.4639 17.9277V20.0901C26.4639 20.579 26.9258 20.9767 27.4935 20.9767ZM27.5186 17.9494H29.9795V20.0685H27.5186V17.9494ZM20.3275 15.2248H22.8387C23.4064 15.2248 23.8682 14.827 23.8682 14.3382V12.1758C23.8682 11.6869 23.4064 11.2892 22.8387 11.2892H20.3275C19.7598 11.2892 19.2979 11.6869 19.2979 12.1758V14.3382C19.2979 14.827 19.7598 15.2248 20.3275 15.2248ZM20.3526 12.1974H22.8136V14.3166H20.3526V12.1974ZM8.50672 22.5234H5.99558C5.42788 22.5234 4.96599 22.9212 4.96599 23.41V25.5724C4.96599 26.0613 5.42788 26.459 5.99558 26.459H8.50672C9.07442 26.459 9.53631 26.0613 9.53631 25.5724V23.41C9.53631 22.9212 9.07442 22.5234 8.50672 22.5234ZM8.48162 25.5508H6.02068V23.4316H8.48162V25.5508ZM8.50672 11.2892H5.99558C5.42788 11.2892 4.96599 11.6869 4.96599 12.1758V14.3382C4.96599 14.827 5.42788 15.2248 5.99558 15.2248H8.50672C9.07442 15.2248 9.53631 14.827 9.53631 14.3382V12.1758C9.53631 11.6869 9.07442 11.2892 8.50672 11.2892ZM8.48162 14.3166H6.02068V12.1974H8.48162V14.3166ZM20.3275 20.8419H22.8387C23.4064 20.8419 23.8682 20.4441 23.8682 19.9553V17.7929C23.8682 17.3041 23.4064 16.9063 22.8387 16.9063H20.3275C19.7598 16.9063 19.2979 17.3041 19.2979 17.7929V19.9553C19.2979 20.4441 19.7598 20.8419 20.3275 20.8419ZM20.3526 17.8145H22.8136V19.9337H20.3526V17.8145ZM31.558 2.07518H29.3033V1.38089C29.3033 0.619455 28.584 0 27.6997 0H27.4576C26.5734 0 25.854 0.619455 25.854 1.38089V2.07518H10.1462V1.38089C10.1462 0.619455 9.42683 0 8.54258 0H8.30042C7.41617 0 6.69681 0.619455 6.69681 1.38089V2.07518H4.44224C2.98642 2.07518 1.802 3.0951 1.802 4.34872V28.7295C1.802 29.9815 2.9848 31 4.43872 31H31.5616C33.0155 31 34.1983 29.9815 34.1983 28.7295V4.34872C34.1983 3.0951 33.0139 2.07518 31.558 2.07518ZM26.9087 1.38089C26.9087 1.12024 27.1549 0.908203 27.4576 0.908203H27.6998C28.0025 0.908203 28.2487 1.12024 28.2487 1.38089V2.07518H26.9087V1.38089ZM7.75156 1.38089C7.75156 1.12024 7.9978 0.908203 8.30049 0.908203H8.54265C8.84535 0.908203 9.09158 1.12024 9.09158 1.38089V2.07518H7.75163V1.38089H7.75156ZM33.1436 28.7295C33.1436 29.4807 32.4339 30.0918 31.5616 30.0918H4.43865C3.56628 30.0918 2.85662 29.4807 2.85662 28.7295V28.7266C3.29846 29.0133 3.84767 29.1836 4.44224 29.1836H25.8231C26.5283 29.1836 27.1914 28.9471 27.69 28.5176L33.1436 23.8215V28.7295ZM27.1519 27.6966C27.1932 27.5497 27.2157 27.3964 27.2157 27.2387V24.2075C27.2157 23.6359 27.7558 23.1709 28.4196 23.1709H31.9397C32.1229 23.1709 32.3008 23.1515 32.4715 23.1159L27.1519 27.6966ZM33.1436 8.5646H10.6735C10.3823 8.5646 10.1462 8.76791 10.1462 9.0187C10.1462 9.26948 10.3823 9.4728 10.6735 9.4728H33.1436V21.226C33.1436 21.7977 32.6035 22.2627 31.9397 22.2627H28.4196C27.1743 22.2627 26.1611 23.1352 26.1611 24.2075V27.2388C26.1611 27.8104 25.621 28.2755 24.9572 28.2755H4.44224C3.56797 28.2755 2.85669 27.663 2.85669 26.9101V9.4728H8.56417C8.8554 9.4728 9.09151 9.26948 9.09151 9.0187C9.09151 8.76791 8.8554 8.5646 8.56417 8.5646H2.85662V4.34872C2.85662 3.59588 3.5679 2.98339 4.44217 2.98339H6.69681V4.31857C6.69681 5.08 7.41617 5.69946 8.30042 5.69946C8.59166 5.69946 8.82777 5.49614 8.82777 5.24536C8.82777 4.99457 8.59166 4.79126 8.30042 4.79126C7.99773 4.79126 7.75149 4.57922 7.75149 4.31857V2.98339H25.854V4.31857C25.854 5.08 26.5734 5.69946 27.4576 5.69946C27.7489 5.69946 27.985 5.49614 27.985 5.24536C27.985 4.99457 27.7489 4.79126 27.4576 4.79126C27.1549 4.79126 26.9087 4.57922 26.9087 4.31857V2.98339H31.558C32.4323 2.98339 33.1436 3.59588 33.1436 4.34872V8.5646ZM8.50672 16.9063H5.99558C5.42788 16.9063 4.96599 17.3041 4.96599 17.7929V19.9553C4.96599 20.4441 5.42788 20.8419 5.99558 20.8419H8.50672C9.07442 20.8419 9.53631 20.4441 9.53631 19.9553V17.7929C9.53631 17.304 9.07442 16.9063 8.50672 16.9063ZM8.48162 19.9337H6.02068V17.8145H8.48162V19.9337ZM13.1615 15.2248H15.6727C16.2404 15.2248 16.7023 14.827 16.7023 14.3382V12.1758C16.7023 11.6869 16.2404 11.2892 15.6727 11.2892H13.1615C12.5938 11.2892 12.132 11.6869 12.132 12.1758V14.3382C12.132 14.827 12.5938 15.2248 13.1615 15.2248ZM13.1866 12.1974H15.6476V14.3166H13.1866V12.1974ZM20.352 25.5508C20.3389 25.31 20.1081 25.1183 19.8252 25.1183C19.534 25.1183 19.2979 25.3216 19.2979 25.5724C19.2979 26.0613 19.7597 26.459 20.3274 26.459H22.8386C23.4063 26.459 23.8682 26.0613 23.8682 25.5724V23.41C23.8682 22.9212 23.4063 22.5234 22.8386 22.5234H20.3274C19.7597 22.5234 19.2979 22.9212 19.2979 23.41V24.0337C19.2979 24.2844 19.534 24.4878 19.8252 24.4878C20.1164 24.4878 20.3525 24.2844 20.3525 24.0337V23.4316H22.8135V25.5508H20.352ZM13.1615 20.8419H15.6727C16.2404 20.8419 16.7023 20.4441 16.7023 19.9553V17.7929C16.7023 17.3041 16.2404 16.9063 15.6727 16.9063H13.1615C12.5938 16.9063 12.132 17.3041 12.132 17.7929V19.9553C12.132 20.4441 12.5938 20.8419 13.1615 20.8419ZM13.1866 17.8145H15.6476V19.9337H13.1866V17.8145ZM13.1615 26.459H15.6727C16.2404 26.459 16.7023 26.0613 16.7023 25.5724V23.41C16.7023 22.9212 16.2404 22.5234 15.6727 22.5234H13.1615C12.5938 22.5234 12.132 22.9212 12.132 23.41V25.5724C12.132 26.0613 12.5938 26.459 13.1615 26.459ZM13.1866 23.4316H15.6476V25.5508H13.1866V23.4316Z" fill="#B89869"/>
</g>
<defs>
<clipPath id="clip0">
<rect width="36" height="31" fill="white"/>
</clipPath>
</defs>
</svg>
