<svg width="52" height="52" viewBox="0 0 52 52" fill="none" xmlns="http://www.w3.org/2000/svg">
<g clip-path="url(#clip0)">
<path d="M39.031 -0.101562C32.2779 -0.101562 26.7233 5.12812 26.2036 11.7503H17.754C17.6683 11.7503 17.5854 11.7618 17.5057 11.7821L10.6165 2.34626C10.4253 2.08442 10.1206 1.92969 9.79604 1.92969H0.914065C0.353089 1.92969 -0.101562 2.38434 -0.101562 2.94532V7.00783C-0.101562 7.5688 0.353089 8.02345 0.914065 8.02345H7.21809L9.95473 11.7503H3.38053C2.81956 11.7503 2.3649 12.205 2.3649 12.766V17.0867C2.3649 26.4392 9.21523 34.2207 18.1615 35.6802V46.4245L12.8953 48.6283C12.1383 48.9449 11.7226 49.728 11.884 50.5322C12.0455 51.3368 12.731 51.8985 13.5515 51.8985H28.8597C29.6805 51.8985 30.3661 51.3364 30.5275 50.5318C30.689 49.7268 30.2728 48.9441 29.5155 48.6279L24.2552 46.4304V35.6795C30.2582 34.6983 35.3164 30.8719 37.994 25.6335H39.031C46.1261 25.6335 51.8985 19.8611 51.8985 12.766C51.8985 5.67085 46.1261 -0.101562 39.031 -0.101562V-0.101562ZM7.73225 5.9922H1.92969V3.96095H9.28029L23.6728 23.674C23.7145 23.7312 23.7613 23.7827 23.8117 23.8284C23.407 24.5155 23.115 25.2455 22.9425 26.0032L8.55071 6.40678C8.35948 6.14613 8.05559 5.9922 7.73225 5.9922ZM26.5765 31.7098C25.4184 30.5438 24.79 29.1219 24.79 27.6342C24.79 26.1464 25.4184 24.7246 26.5765 23.5586C27.7342 24.7246 28.3626 26.1464 28.3626 27.6342C28.3626 29.1219 27.7342 30.5438 26.5765 31.7098ZM11.4464 13.7816L13.4087 16.4532H4.39616V13.7816H11.4464ZM4.45448 18.4844H7.86159C7.39742 18.5443 7.03242 18.9141 6.98164 19.3814C6.69758 21.9982 7.46327 24.3616 9.13826 26.0366C10.5839 27.4822 12.5434 28.2507 14.7361 28.2507C15.0829 28.2507 15.4355 28.2317 15.793 28.1928C16.2671 28.1412 16.6416 27.7667 16.6932 27.2926C16.9772 24.6758 16.2116 22.3125 14.537 20.6379C13.3265 19.427 11.7563 18.6919 9.99084 18.4844H14.9008L23.0051 29.5202C23.3832 30.9453 24.1902 32.264 25.374 33.3733C24.0406 33.7145 22.6441 33.8962 21.206 33.8962C12.4077 33.8962 5.1674 27.1018 4.45448 18.4844ZM8.95577 20.455C10.599 20.4609 12.0487 21.0219 13.1008 22.074C14.1525 23.1257 14.7135 24.5754 14.7195 26.2187C13.0762 26.2131 11.6265 25.6521 10.5744 24.6C9.52269 23.5483 8.96132 22.0986 8.95577 20.455ZM22.848 48.0443L27.2125 49.8673H15.1967L19.5691 48.0376C19.9468 47.8797 20.1927 47.5099 20.1927 47.1005V35.9C20.528 35.9179 20.866 35.9274 21.206 35.9274C21.5476 35.9274 21.8868 35.9179 22.224 35.9V47.1068C22.224 47.5167 22.47 47.886 22.848 48.0443ZM28.9938 31.9796C29.9078 30.6747 30.3942 29.1882 30.3942 27.6342C30.3942 25.2657 29.2643 23.0531 27.2129 21.4035C26.8411 21.1048 26.3119 21.1048 25.9401 21.4035C25.6367 21.6475 25.3538 21.9042 25.0911 22.1716L22.3989 18.4844H26.5765C27.1375 18.4844 27.5921 18.0298 27.5921 17.4688C27.5921 16.9078 27.1375 16.4532 26.5765 16.4532H20.916L18.9653 13.7816H38.0154V16.4532H35.3438C34.7828 16.4532 34.3282 16.9078 34.3282 17.4688C34.3282 18.0298 34.7828 18.4844 35.3438 18.4844H37.9571C37.4715 24.3508 33.9616 29.3715 28.9938 31.9796ZM40.0403 17.5807C40.0443 17.5438 40.0467 17.1887 40.0467 17.0867V15.2177L43.2863 18.4574C42.3044 19.1934 41.1265 19.6802 39.8467 19.8269C39.9546 19.091 40.0205 18.3416 40.0403 17.5807ZM44.7229 17.0213L41.4832 13.7816H46.0666C45.894 14.9841 45.4204 16.0909 44.7229 17.0213ZM41.4832 11.7503L44.7229 8.51064C45.4204 9.44097 45.894 10.5474 46.0666 11.7503H41.4832ZM40.0467 10.3138V5.73036C41.2495 5.90294 42.356 6.37663 43.2863 7.07408L40.0467 10.3138ZM38.0154 10.3138L34.7757 7.07408C35.7064 6.37663 36.8129 5.90294 38.0154 5.73036V10.3138ZM33.3395 8.51064L36.5792 11.7503H31.9954C32.1684 10.5474 32.6421 9.44097 33.3395 8.51064ZM39.031 23.6022H38.885C39.0905 23.0456 39.2703 22.4771 39.4234 21.8975C44.2821 21.6912 48.1717 17.6747 48.1717 12.766C48.1717 7.72551 44.0715 3.62531 39.031 3.62531C34.3341 3.62531 30.4541 7.18636 29.9471 11.7503H28.2432C28.7565 6.24968 33.3987 1.92969 39.031 1.92969C45.0062 1.92969 49.8673 6.79082 49.8673 12.766C49.8673 18.7407 45.0062 23.6022 39.031 23.6022Z" fill="#B89869"/>
<path d="M18.2285 29.5881C17.9603 29.5881 17.6993 29.6968 17.5092 29.886C17.3204 30.0749 17.2129 30.3367 17.2129 30.6037C17.2129 30.8711 17.3204 31.1329 17.5092 31.3218C17.6993 31.5118 17.9603 31.6193 18.2285 31.6193C18.4955 31.6193 18.7566 31.5118 18.9466 31.3218C19.1354 31.1329 19.2441 30.8711 19.2441 30.6037C19.2441 30.3367 19.1354 30.0749 18.9466 29.886C18.7578 29.6968 18.4955 29.5881 18.2285 29.5881Z" fill="#B89869"/>
<path d="M31.2924 16.4531C31.0254 16.4531 30.7631 16.5618 30.5743 16.7507C30.3854 16.9395 30.2767 17.2018 30.2767 17.4688C30.2767 17.7358 30.3854 17.998 30.5743 18.1868C30.7631 18.3757 31.0254 18.4844 31.2924 18.4844C31.5594 18.4844 31.8216 18.3757 32.0104 18.1868C32.1993 17.998 32.308 17.7358 32.308 17.4688C32.308 17.2018 32.1993 16.9395 32.0104 16.7507C31.8216 16.5618 31.5594 16.4531 31.2924 16.4531Z" fill="#B89869"/>
</g>
<defs>
<clipPath id="clip0">
<rect width="52" height="52" fill="white"/>
</clipPath>
</defs>
</svg>
