<svg width="18" height="19" viewBox="0 0 18 19" fill="none" xmlns="http://www.w3.org/2000/svg">
<g clip-path="url(#clip0)">
<path d="M12.6311 6.55811H5.36887L9.00001 9.67053L12.6311 6.55811Z" fill="#B89869"/>
<path d="M8.99998 10.4154C8.92324 10.4154 8.849 10.3879 8.79077 10.3379L4.82141 6.93555V12.9868H13.1786V6.93555L9.20919 10.3379C9.15097 10.3879 9.07673 10.4154 8.99998 10.4154Z" fill="#B89869"/>
<path d="M9 0.772461C4.02947 0.772461 0 4.80193 0 9.77246C0 14.743 4.02947 18.7725 9 18.7725C13.9705 18.7725 18 14.743 18 9.77246C17.9944 4.80429 13.9682 0.778111 9 0.772461ZM13.8214 13.3082C13.8214 13.4857 13.6775 13.6296 13.5 13.6296H4.5C4.32249 13.6296 4.17857 13.4857 4.17857 13.3082V6.23675C4.17857 6.05924 4.32249 5.91532 4.5 5.91532H13.5C13.6775 5.91532 13.8214 6.05924 13.8214 6.23675V13.3082Z" fill="#B89869"/>
</g>
<defs>
<clipPath id="clip0">
<rect width="18" height="18" fill="white" transform="translate(0 0.772461)"/>
</clipPath>
</defs>
</svg>
