<svg width="46" height="47" viewBox="0 0 46 47" fill="none" xmlns="http://www.w3.org/2000/svg">
<path d="M46 23.5C46 10.5199 35.7039 0 23 0C10.2961 0 0 10.5199 0 23.5C0 36.4801 10.2961 47 23 47C23.1348 47 23.2695 47 23.4043 46.9908V28.7049H18.4629V22.8207H23.4043V18.4879C23.4043 13.4666 26.4051 10.7311 30.7895 10.7311C32.8918 10.7311 34.6977 10.8871 35.2188 10.9605V16.2113H32.2C29.8191 16.2113 29.352 17.368 29.352 19.0662V22.8115H35.057L34.3113 28.6957H29.352V46.0912C38.9652 43.273 46 34.2311 46 23.5Z" fill="#B89869"/>
</svg>
