<svg width="18" height="18" viewBox="0 0 18 18" fill="none" xmlns="http://www.w3.org/2000/svg">
<path d="M9.64283 7.07954C9.64283 7.43909 9.35499 7.73061 8.99997 7.73061C8.64496 7.73061 8.35712 7.43909 8.35712 7.07954C8.35712 6.71999 8.64496 6.42847 8.99997 6.42847C9.35499 6.42847 9.64283 6.71999 9.64283 7.07954Z" fill="#B89869"/>
<path d="M8.99999 4.5C7.22554 4.50188 5.78759 5.93984 5.78571 7.71429C5.78571 9.75664 8.23205 12.5357 8.99999 13.3564C9.76762 12.5357 12.2143 9.75476 12.2143 7.71429C12.2124 5.93984 10.7744 4.50188 8.99999 4.5ZM8.99999 8.35714C8.28996 8.35714 7.71428 7.78146 7.71428 7.07143C7.71428 6.3614 8.28996 5.78571 8.99999 5.78571C9.71002 5.78571 10.2857 6.3614 10.2857 7.07143C10.2857 7.78146 9.71002 8.35714 8.99999 8.35714Z" fill="#B89869"/>
<path d="M9 0C4.02947 0 0 4.02947 0 9C0 13.9705 4.02947 18 9 18C13.9705 18 18 13.9705 18 9C17.9944 4.03183 13.9682 0.00565011 9 0ZM9.22726 14.0487C9.1017 14.1741 8.8983 14.1741 8.77274 14.0487C8.62458 13.9005 5.14286 10.3879 5.14286 7.71429C5.14286 5.58404 6.86975 3.85714 9 3.85714C11.1302 3.85714 12.8571 5.58404 12.8571 7.71429C12.8571 10.3879 9.37542 13.9005 9.22726 14.0487Z" fill="#B89869"/>
</svg>
