<svg width="18" height="18" viewBox="0 0 18 18" fill="none" xmlns="http://www.w3.org/2000/svg">
<path d="M9 -0.143555C4.02947 -0.143555 0 3.90895 0 8.90788C0 13.9068 4.02947 17.9593 9 17.9593C13.9705 17.9593 18 13.9068 18 8.90788C17.9944 3.91131 13.9682 -0.137872 9 -0.143555ZM11.5714 13.7569C7.49032 13.7523 4.18312 10.4262 4.17857 6.32176C4.17873 5.48487 4.63811 4.71632 5.37294 4.3236C6.10793 3.93105 6.99829 3.9784 7.68792 4.44688C7.76011 4.49581 7.8094 4.57221 7.82446 4.65855L8.30661 7.40205C8.33093 7.54095 8.26313 7.67954 8.13883 7.74473L6.87242 8.41004C7.39035 9.58756 8.32575 10.5288 9.49627 11.0502L10.1572 9.77493C10.222 9.64991 10.3598 9.58172 10.4979 9.60619L13.2261 10.0911C13.3118 10.1062 13.3876 10.1556 13.4363 10.2281C13.9018 10.9217 13.9487 11.8171 13.5582 12.556C13.1676 13.295 12.4036 13.7569 11.5714 13.7569Z" fill="#B89869"/>
</svg>
