<svg width="64" height="64" viewBox="0 0 64 64" fill="none" xmlns="http://www.w3.org/2000/svg">
<g clip-path="url(#clip0)">
<path d="M61.269 32.6631H59.0474C58.8394 29.2852 58.0166 26.0249 56.5928 22.96C56.3755 22.4907 55.8188 22.2876 55.3496 22.5049C54.8804 22.7227 54.6768 23.2793 54.8945 23.7485C56.2026 26.5654 56.9658 29.5601 57.1709 32.6631H14.2871C13.77 32.6631 13.3511 33.082 13.3511 33.5991C13.3511 34.1162 13.77 34.5352 14.2871 34.5352H61.269C61.7427 34.5352 62.1274 34.9204 62.1274 35.394V36.5366C62.1274 37.0103 61.7427 37.3955 61.269 37.3955H2.73096C2.25732 37.3955 1.87256 37.0103 1.87256 36.5366V35.394C1.87256 34.9204 2.25732 34.5352 2.73096 34.5352H9.92334C10.4404 34.5352 10.8599 34.1162 10.8599 33.5991C10.8599 33.082 10.4404 32.6631 9.92334 32.6631H6.8291C7.2417 26.4438 9.90869 20.6582 14.4038 16.2822C18.7358 12.0654 24.3335 9.58301 30.3159 9.18945C30.3193 9.18945 30.3228 9.18994 30.3262 9.18945C30.5811 9.17285 30.833 9.16016 31.082 9.15088C31.1318 9.14941 31.1812 9.14697 31.231 9.14551C31.3198 9.14258 31.4082 9.14062 31.4956 9.13867C31.6636 9.13574 31.8315 9.13281 32 9.13281C32.2236 9.13281 32.4473 9.13721 32.6704 9.14307C32.7363 9.14502 32.8018 9.14697 32.8682 9.14893C33.04 9.15479 33.2114 9.16357 33.3828 9.17285C33.4736 9.17773 33.5645 9.18262 33.6558 9.18848C41.3418 9.69336 48.4131 13.6904 52.8135 20.0996C53.106 20.5254 53.689 20.6343 54.1152 20.3413C54.5415 20.0488 54.6499 19.4658 54.3569 19.0396C50.0269 12.7324 43.2871 8.60156 35.8379 7.53613C36.3047 6.81152 36.5669 5.9585 36.5669 5.06494C36.5669 4.55615 36.3398 3.61816 34.8193 3.05859C34.0601 2.7793 33.0586 2.625 32 2.625C30.9409 2.625 29.9395 2.7793 29.1802 3.05859C27.6597 3.61816 27.4331 4.55615 27.4331 5.06494C27.4331 5.95605 27.6943 6.80762 28.1582 7.53076C22.5024 8.33105 17.2568 10.8916 13.0977 14.9404C8.23877 19.6704 5.36816 25.9341 4.95264 32.6626H2.73096C1.2251 32.6631 0 33.8882 0 35.394V36.5366C0 38.043 1.2251 39.2681 2.73096 39.2681H12.8164C12.313 39.6128 11.8306 39.9995 11.3789 40.4287L11.3604 40.4463C11.3315 40.4731 11.3042 40.502 11.2793 40.5327L6.83447 45.9302C6.27686 45.5762 5.6167 45.4473 4.96533 45.5723C4.28613 45.7021 3.69873 46.0889 3.31104 46.6611L1.56299 49.2388C0.763672 50.418 1.07227 52.0288 2.25049 52.8291L14.2119 60.9551C14.6455 61.2495 15.1465 61.4028 15.6597 61.4028C15.8228 61.4028 15.9873 61.3872 16.1514 61.356C16.8301 61.2261 17.4175 60.8394 17.8052 60.2671L19.5532 57.6895C20.3525 56.5103 20.0444 54.8994 18.8662 54.0991L18.7979 54.0527C19.6304 53.1079 20.7402 52.4307 21.9478 52.1514C24.4922 51.562 27.4863 51.9414 29.5171 52.2778C32.0293 52.6938 34.668 52.5518 37.1479 51.8667L40.5952 50.9141C42.8916 50.2793 45.0049 49.2104 46.877 47.7368C46.8911 47.7256 46.9048 47.7144 46.9185 47.7021L52.8369 42.4604C53.8457 41.6885 54.0654 40.3516 53.7173 39.2681H61.269C62.7749 39.2681 64 38.043 64 36.5371V35.394C64 33.8882 62.7749 32.6631 61.269 32.6631ZM32 4.49756C33.5767 4.49756 34.5215 4.8877 34.6943 5.10449C34.6816 5.99268 34.2324 6.81201 33.5015 7.30322C33.3174 7.29346 33.1357 7.28564 32.9546 7.27881C32.8936 7.27686 32.8325 7.27393 32.7715 7.27246C32.5103 7.26465 32.2524 7.26074 32 7.26074C31.8208 7.26074 31.6382 7.26318 31.4541 7.26709C31.3652 7.26855 31.2759 7.271 31.1865 7.27393C31.0801 7.27734 30.9727 7.28076 30.8652 7.28516C30.7427 7.29053 30.6201 7.2959 30.498 7.30273C29.7671 6.81152 29.3184 5.99219 29.3057 5.10449C29.4785 4.8877 30.4233 4.49756 32 4.49756ZM38.7139 39.7197C38.644 39.5615 38.5605 39.4111 38.4663 39.2681H47.4463L43.5635 41.8379L38.0288 43.439L37.8408 43.4434C38.9062 42.5552 39.2949 41.0386 38.7139 39.7197ZM28.5615 39.2681L27.2104 39.5498L26.166 39.2681H28.5615ZM18.0034 56.6387L16.2559 59.2163C16.1489 59.3745 15.9868 59.481 15.7993 59.5171C15.6123 59.5527 15.4219 59.5137 15.2642 59.4062L3.30273 51.2803C2.97754 51.0596 2.89258 50.6152 3.11328 50.29L4.86133 47.7119C4.96826 47.5542 5.12988 47.4473 5.31738 47.4116C5.36279 47.4028 5.4082 47.3984 5.45312 47.3984C5.59473 47.3984 5.73291 47.4409 5.85254 47.5225L6.49854 47.9609C6.49854 47.9614 6.49902 47.9614 6.49902 47.9614L17.814 55.6479C18.1392 55.8687 18.2241 56.3135 18.0034 56.6387ZM51.688 40.9819C51.6655 40.998 51.644 41.0156 51.623 41.0342L45.6982 46.2822C44.0278 47.5923 42.1431 48.5435 40.0967 49.1089L36.6494 50.0615C34.4297 50.6753 32.0693 50.8027 29.8237 50.4307C27.6353 50.0684 24.395 49.6626 21.5254 50.3271C19.8633 50.7119 18.3457 51.667 17.2417 52.9951L8.39258 46.9839L12.6875 41.7681C14.312 40.2344 16.3721 39.3237 18.3447 39.2681H18.3828C18.9946 39.2578 19.6421 39.438 20.3271 39.6299C20.4648 39.668 20.6021 39.7065 20.7397 39.7437L26.939 41.416C27.0811 41.4541 27.23 41.4585 27.374 41.4282L35.4932 39.7354C35.8613 39.6592 36.248 39.7339 36.5542 39.9414C36.752 40.0757 36.9062 40.2603 37.0005 40.4746C37.2788 41.106 37.0166 41.8472 36.3945 42.1675L33.6245 43.6343C33.2412 43.8374 33.0479 44.2769 33.1567 44.6968C33.2661 45.1172 33.6484 45.4033 34.083 45.3975L38.1919 45.3086C38.2734 45.3066 38.354 45.2944 38.4316 45.272L44.2212 43.5972C44.3125 43.5708 44.3989 43.5308 44.478 43.4785L50.3188 39.6123C50.8091 39.3096 51.4614 39.0605 51.8086 39.5728C52.0791 39.9712 52.0854 40.6885 51.688 40.9819Z" fill="#B89869"/>
</g>
<defs>
<clipPath id="clip0">
<rect width="64" height="64" fill="white"/>
</clipPath>
</defs>
</svg>
