<svg width="57" height="57" viewBox="0 0 57 57" fill="none" xmlns="http://www.w3.org/2000/svg">
<g clip-path="url(#clip0)">
<path d="M55.7162 51.6206L52.3046 47.2223C49.0835 43.0696 44.9905 39.6989 40.3308 37.3362C42.8461 34.8344 44.5299 31.5893 45.1153 28.0708L47.9185 11.2172C47.995 10.7592 47.7789 10.3022 47.377 10.0704L30.1934 0.149135C29.7911 -0.0830891 29.2875 -0.041341 28.9292 0.253505L15.7351 11.1084C12.1878 14.0269 9.94729 18.3269 9.58765 22.9066C9.5846 22.9453 9.5833 22.9836 9.58026 23.0219C9.19322 21.8481 8.86184 20.6522 8.59135 19.4367C8.203 17.6929 6.68398 16.4752 4.89751 16.4752C3.81206 16.4752 2.77749 16.9423 2.05951 17.7564C1.34153 18.5705 1.00711 19.6551 1.14279 20.7322C2.24086 29.4567 5.82032 37.6193 11.4937 44.3377C12.1582 45.1249 12.8653 45.8759 13.6059 46.5921L11.4267 50.3668L5.46459 46.9244C4.93187 46.6169 4.25085 46.7996 3.94383 47.3318C3.63637 47.8646 3.81859 48.5452 4.35131 48.8526L18.2038 56.8504C18.3791 56.9517 18.5704 56.9996 18.7592 56.9996C19.144 56.9996 19.5185 56.8 19.7246 56.4429C20.0321 55.9106 19.8494 55.2296 19.3171 54.9222L13.355 51.4801L15.298 48.1146C17.6446 50.0716 20.2791 51.6845 23.0945 52.8713L32.6796 56.9122C32.8209 56.9717 32.9674 57 33.1118 57C33.5458 57 33.959 56.7443 34.1381 56.319C34.3769 55.7523 34.1112 55.0996 33.545 54.8604L23.9594 50.82C19.8172 49.0735 16.0947 46.3355 13.1949 42.9013C7.79987 36.5126 4.3961 28.7505 3.35196 20.4544C3.295 20.0043 3.42937 19.5694 3.72944 19.2293C4.02907 18.8892 4.44394 18.7018 4.89751 18.7018C5.63289 18.7018 6.25824 19.2032 6.41784 19.9212C7.51546 24.8488 9.53416 29.4832 12.3508 33.6059C12.5013 33.8337 12.6587 34.0577 12.8205 34.2791C14.0817 36.0442 15.4907 37.7115 17.0405 39.2614L21.2736 43.4949C21.9477 44.169 22.844 44.5399 23.7968 44.5399C24.7496 44.5399 25.6459 44.169 26.3199 43.4949C27.7107 42.1038 27.7107 39.8402 26.3199 38.4491L19.174 31.3032C18.7709 30.9001 18.5491 30.3643 18.5491 29.7946C18.5491 29.2249 18.7709 28.6892 19.174 28.2865C20.0055 27.4545 21.3589 27.4545 22.1908 28.2865L23.7968 29.8925C27.3375 33.4337 31.5045 36.1373 36.1812 37.9281C41.8546 40.1012 46.8217 43.7867 50.5451 48.5873L53.9572 52.9857C54.3338 53.4714 55.0335 53.5597 55.5192 53.1827C56.005 52.8056 56.0933 52.1063 55.7162 51.6206ZM17.1497 12.8279L29.7481 2.46311L32.5752 4.0952L26.5948 9.01495C26.1203 9.4059 26.052 10.1074 26.4426 10.5822C26.6626 10.8497 26.9814 10.988 27.3032 10.988C27.5519 10.988 27.8024 10.9049 28.0099 10.7344L34.6348 5.28415L45.5954 11.6125L43.7206 22.8836C42.8774 23.4863 37.1949 27.0875 28.1086 22.196C22.3352 19.0875 17.7642 19.1976 14.9462 19.8373C13.846 20.0869 12.9188 20.4348 12.1752 20.7827C12.9249 17.6868 14.6692 14.8684 17.1497 12.8279ZM23.7968 42.3134C23.4384 42.3134 23.1014 42.1738 22.8483 41.9203L21.9664 41.0388C22.0595 41.0757 22.1525 41.1131 22.246 41.1492C23.0631 41.4636 23.9085 41.7141 24.7648 41.8989C24.7579 41.9059 24.7522 41.9137 24.7452 41.9207C24.4921 42.1738 24.1551 42.3134 23.7968 42.3134ZM25.371 28.3178L23.765 26.7118C22.0651 25.0118 19.2993 25.0118 17.5994 26.7118C16.7761 27.535 16.3221 28.63 16.3221 29.7946C16.3221 30.9592 16.7757 32.0538 17.5994 32.8774L24.1743 39.4523C23.7929 39.3401 23.4154 39.2136 23.0449 39.0709C20.9449 38.2634 18.9931 37.1366 17.2436 35.7215C16.2495 34.9174 15.378 33.9973 14.6374 32.9918C14.49 32.7853 14.3448 32.577 14.2017 32.3678C12.5018 29.7894 11.6329 26.7118 11.7781 23.5585C13.0706 22.6561 18.5126 19.5589 27.0531 24.1564C31.0496 26.3078 34.4839 26.9505 37.1609 26.9505C38.3442 26.9505 39.3801 26.8253 40.2503 26.6487C41.4632 26.403 42.4699 26.0408 43.2553 25.6842L42.9187 27.7055C42.3647 31.0366 40.6778 34.0864 38.1577 36.3256C37.7676 36.1599 37.374 36.0007 36.9774 35.8485C32.5943 34.1699 28.6896 31.6363 25.371 28.3178Z" fill="#B89869"/>
<path d="M24.2943 13.4629C24.587 13.4629 24.8744 13.3437 25.0814 13.1367C25.2884 12.9297 25.4076 12.6423 25.4076 12.3496C25.4076 12.0569 25.2884 11.7695 25.0814 11.5625C24.874 11.3555 24.5883 11.2363 24.2943 11.2363C24.0016 11.2363 23.7142 11.3555 23.5072 11.5625C23.3002 11.7695 23.181 12.0569 23.181 12.3496C23.181 12.6423 23.3002 12.9297 23.5072 13.1367C23.7142 13.3437 24.0016 13.4629 24.2943 13.4629Z" fill="#B89869"/>
</g>
<defs>
<clipPath id="clip0">
<rect width="57" height="57" fill="white"/>
</clipPath>
</defs>
</svg>
